<svg width="1600" height="520" viewBox="0 0 1600 520" fill="none" xmlns="http://www.w3.org/2000/svg">
  <defs>
    <linearGradient id="bgFire" x1="0" y1="0" x2="1600" y2="520" gradientUnits="userSpaceOnUse">
      <stop stop-color="#090403"/>
      <stop offset="0.5" stop-color="#1B0C06"/>
      <stop offset="1" stop-color="#080302"/>
    </linearGradient>

    <linearGradient id="accentFire" x1="100" y1="80" x2="1400" y2="440" gradientUnits="userSpaceOnUse">
      <stop stop-color="#FF7A18"/>
      <stop offset="0.5" stop-color="#FF4E00"/>
      <stop offset="1" stop-color="#C93A00"/>
    </linearGradient>

    <linearGradient id="pillFire" x1="0" y1="0" x2="260" y2="64" gradientUnits="userSpaceOnUse">
      <stop stop-color="#FFD29A"/>
      <stop offset="1" stop-color="#FF7A18"/>
    </linearGradient>

    <linearGradient id="photoStroke" x1="1170" y1="95" x2="1515" y2="430" gradientUnits="userSpaceOnUse">
      <stop stop-color="#FFD29A" stop-opacity="0.9"/>
      <stop offset="1" stop-color="#FF7A18" stop-opacity="0.45"/>
    </linearGradient>

    <filter id="blurGlowFire" x="-100" y="-100" width="1800" height="800">
      <feGaussianBlur stdDeviation="55"/>
    </filter>

    <filter id="photoShadow" x="1090" y="70" width="470" height="400" filterUnits="userSpaceOnUse">
      <feOffset dy="12"/>
      <feGaussianBlur stdDeviation="22"/>
      <feColorMatrix type="matrix" values="0 0 0 0 0.0  0 0 0 0 0.0  0 0 0 0 0.0  0 0 0 0.42 0"/>
    </filter>

    <clipPath id="photoClip">
      <rect x="1160" y="90" width="350" height="340" rx="28"/>
    </clipPath>
  </defs>

  <rect width="1600" height="520" rx="40" fill="url(#bgFire)"/>

  <g filter="url(#blurGlowFire)" opacity="0.9">
    <circle cx="1250" cy="120" r="180" fill="#FF7A18" fill-opacity="0.25"/>
    <circle cx="300" cy="460" r="200" fill="#FF4E00" fill-opacity="0.16"/>
    <circle cx="900" cy="310" r="260" fill="#FF7A18" fill-opacity="0.15"/>
  </g>

  <path d="M0 100C180 60 340 60 500 100C660 140 830 140 1000 100C1180 60 1380 70 1600 140V520H0V100Z"
        fill="url(#accentFire)" fill-opacity="0.18"/>

  <path d="M0 300C200 260 350 260 520 300C700 340 900 350 1120 300C1300 260 1450 260 1600 300V520H0V300Z"
        fill="#FF4E00" fill-opacity="0.12"/>

  <circle cx="1470" cy="90" r="200" fill="#FFFFFF10"/>
  <circle cx="1470" cy="90" r="120" fill="#FFFFFF08"/>

  <text x="90" y="100" fill="#FFD29A" font-size="34" font-family="Arial, Helvetica, sans-serif" font-weight="700" letter-spacing="8">
    ПРОЖАРИМ
  </text>

  <rect x="90" y="130" width="260" height="64" rx="32" fill="#120703" stroke="#FF7A18" stroke-opacity="0.45" stroke-width="2"/>
  <text x="220" y="172" text-anchor="middle" fill="url(#pillFire)" font-size="28" font-family="Arial, Helvetica, sans-serif" font-weight="900" letter-spacing="2">
    BBQ АКЦИЯ
  </text>

  <text x="90" y="275" fill="white" font-size="86" font-family="Arial, Helvetica, sans-serif" font-weight="900">
    ДЕНЬ РОЖДЕНИЯ
  </text>

  <text x="90" y="350" fill="#F8F3EC" font-size="44" font-family="Arial, Helvetica, sans-serif" font-weight="700">
    Используйте промокод birthday
  </text>

  <text x="90" y="404" fill="#F2D6B8" font-size="34" font-family="Arial, Helvetica, sans-serif">
    и получите скидку на заказ.
  </text>

  <text x="90" y="455" fill="#FFFFFF88" font-size="25" font-family="Arial, Helvetica, sans-serif">
    Размер скидки можно менять в promokod.json
  </text>

  <!-- Фото справа -->
  <g filter="url(#photoShadow)">
    <rect x="1160" y="90" width="350" height="340" rx="28" fill="#120703"/>
  </g>

  <g clip-path="url(#photoClip)">
    <image
      href="assets/promoting/promo-photo.jpg"
      x="1160"
      y="90"
      width="350"
      height="340"
      preserveAspectRatio="xMidYMid slice"
    />
    <rect x="1160" y="90" width="350" height="340" rx="28" fill="url(#accentFire)" fill-opacity="0.08"/>
  </g>

  <rect x="1160" y="90" width="350" height="340" rx="28" fill="none" stroke="url(#photoStroke)" stroke-width="2"/>

  <!-- Подпись под фото
  <rect x="1210" y="386" width="250" height="38" rx="19" fill="#120703" fill-opacity="0.86" stroke="#FF7A18" stroke-opacity="0.25"/>
  <text x="1335" y="411" text-anchor="middle" fill="#FFD29A" font-size="18" font-family="Arial, Helvetica, sans-serif" font-weight="700" letter-spacing="1">
    ФОТО АКЦИИ
  </text>-->
</svg>